<?xml version="1.0" encoding="UTF-8" standalone="no"?>
<svg width="3527.78mm" height="3527.78mm"
 viewBox="0 0 10000 10000"
 xmlns="http://www.w3.org/2000/svg" xmlns:xlink="http://www.w3.org/1999/xlink" version="1.2" baseProfile="tiny">
<title>Di 2D SVG CodinGame Visual Debugger</title>
<desc>Game state visualizer for a given state data as text</desc>
<defs>
</defs>
<g fill="none" stroke="black" stroke-width="1" fill-rule="evenodd" stroke-linecap="square" stroke-linejoin="bevel" >

<g fill="#000000" fill-opacity="1" stroke="none" transform="matrix(1,0,0,1,0,0)"
font-family="Segoe UI" font-size="9" font-weight="400" font-style="normal" 
>
<rect x="0" y="0" width="10000" height="10000"/>
</g>

<g fill="none" stroke="#008000" stroke-opacity="1" stroke-width="12" stroke-linecap="square" stroke-linejoin="bevel" transform="matrix(1,0,0,1,0,0)"
font-family="Segoe UI" font-size="9" font-weight="400" font-style="normal" 
>
<polyline fill="none" vector-effect="none" points="0,2500 9999,2500 " />
</g>

<g fill="none" stroke="#ffff00" stroke-opacity="1" stroke-width="12" stroke-linecap="square" stroke-linejoin="bevel" transform="matrix(1,0,0,1,0,0)"
font-family="Segoe UI" font-size="9" font-weight="400" font-style="normal" 
>
<polyline fill="none" vector-effect="none" points="0,5000 9999,5000 " />
</g>

<g fill="none" stroke="#ff0000" stroke-opacity="1" stroke-width="12" stroke-linecap="square" stroke-linejoin="bevel" transform="matrix(1,0,0,1,0,0)"
font-family="Segoe UI" font-size="9" font-weight="400" font-style="normal" 
>
<polyline fill="none" vector-effect="none" points="0,7500 9999,7500 " />
</g>

<g fill="none" stroke="#ffffff" stroke-opacity="1" stroke-width="1" stroke-linecap="square" stroke-linejoin="bevel" transform="matrix(1,0,0,1,0,0)"
font-family="Arial" font-size="256" font-weight="400" font-style="normal" 
>
<text fill="#ffffff" fill-opacity="1" stroke="none" xml:space="preserve" x="64" y="256" font-family="Arial" font-size="256" font-weight="400" font-style="normal" 
 >TURN: 3</text>
</g>

<g fill="#808080" fill-opacity="1" stroke="#808080" stroke-opacity="1" stroke-width="24" stroke-linecap="square" stroke-linejoin="bevel" transform="matrix(1,0,0,1,0,0)"
font-family="Arial" font-size="256" font-weight="400" font-style="normal" 
>
<circle cx="8460" cy="2214" r="2000"/>
</g>

<g fill="#800080" fill-opacity="1" stroke="#800080" stroke-opacity="1" stroke-width="24" stroke-linecap="square" stroke-linejoin="bevel" transform="matrix(1,0,0,1,0,0)"
font-family="Arial" font-size="256" font-weight="400" font-style="normal" 
>
<circle cx="8460" cy="2214" r="250"/>
</g>

<g fill="#800080" fill-opacity="1" stroke="#000000" stroke-opacity="1" stroke-width="1" stroke-linecap="square" stroke-linejoin="bevel" transform="matrix(1,0,0,1,0,0)"
font-family="Arial" font-size="128" font-weight="400" font-style="normal" 
>
<text fill="#000000" fill-opacity="1" stroke="none" xml:space="preserve" x="8460" y="2214" font-family="Arial" font-size="128" font-weight="400" font-style="normal" 
 >1</text>
</g>

<g fill="#808080" fill-opacity="1" stroke="#808080" stroke-opacity="1" stroke-width="24" stroke-linecap="square" stroke-linejoin="bevel" transform="matrix(1,0,0,1,0,0)"
font-family="Arial" font-size="128" font-weight="400" font-style="normal" 
>
<circle cx="2959" cy="1891" r="800"/>
</g>

<g fill="#800080" fill-opacity="1" stroke="#800080" stroke-opacity="1" stroke-width="24" stroke-linecap="square" stroke-linejoin="bevel" transform="matrix(1,0,0,1,0,0)"
font-family="Arial" font-size="128" font-weight="400" font-style="normal" 
>
<circle cx="2959" cy="1891" r="250"/>
</g>

<g fill="#800080" fill-opacity="1" stroke="#000000" stroke-opacity="1" stroke-width="1" stroke-linecap="square" stroke-linejoin="bevel" transform="matrix(1,0,0,1,0,0)"
font-family="Arial" font-size="128" font-weight="400" font-style="normal" 
>
<text fill="#000000" fill-opacity="1" stroke="none" xml:space="preserve" x="2959" y="1891" font-family="Arial" font-size="128" font-weight="400" font-style="normal" 
 >3</text>
</g>

<g fill="#d3d3d3" fill-opacity="1" stroke="#d3d3d3" stroke-opacity="1" stroke-width="24" stroke-linecap="square" stroke-linejoin="bevel" transform="matrix(1,0,0,1,0,0)"
font-family="Arial" font-size="128" font-weight="400" font-style="normal" 
>
<circle cx="2262" cy="2226" r="800"/>
</g>

<g fill="#ffa500" fill-opacity="1" stroke="#ffa500" stroke-opacity="1" stroke-width="24" stroke-linecap="square" stroke-linejoin="bevel" transform="matrix(1,0,0,1,0,0)"
font-family="Arial" font-size="128" font-weight="400" font-style="normal" 
>
<circle cx="2262" cy="2226" r="250"/>
</g>

<g fill="#ffa500" fill-opacity="1" stroke="#ffa500" stroke-opacity="1" stroke-dasharray="48,24" stroke-dashoffset="0" stroke-width="12" stroke-linecap="square" stroke-linejoin="bevel" transform="matrix(1,0,0,1,0,0)"
font-family="Arial" font-size="128" font-weight="400" font-style="normal" 
>
<polyline fill="none" vector-effect="none" points="0,2226 9999,2226 " />
<polyline fill="none" vector-effect="none" points="2262,0 2262,9999 " />
</g>

<g fill="#ffa500" fill-opacity="1" stroke="#000000" stroke-opacity="1" stroke-width="1" stroke-linecap="square" stroke-linejoin="bevel" transform="matrix(1,0,0,1,0,0)"
font-family="Arial" font-size="128" font-weight="400" font-style="normal" 
>
<text fill="#000000" fill-opacity="1" stroke="none" xml:space="preserve" x="2262" y="2226" font-family="Arial" font-size="128" font-weight="400" font-style="normal" 
 >0</text>
</g>

<g fill="#d3d3d3" fill-opacity="1" stroke="#d3d3d3" stroke-opacity="1" stroke-width="24" stroke-linecap="square" stroke-linejoin="bevel" transform="matrix(1,0,0,1,0,0)"
font-family="Arial" font-size="128" font-weight="400" font-style="normal" 
>
<circle cx="6268" cy="2237" r="800"/>
</g>

<g fill="#ffa500" fill-opacity="1" stroke="#ffa500" stroke-opacity="1" stroke-width="24" stroke-linecap="square" stroke-linejoin="bevel" transform="matrix(1,0,0,1,0,0)"
font-family="Arial" font-size="128" font-weight="400" font-style="normal" 
>
<circle cx="6268" cy="2237" r="250"/>
</g>

<g fill="#ffa500" fill-opacity="1" stroke="#ffa500" stroke-opacity="1" stroke-dasharray="48,24" stroke-dashoffset="0" stroke-width="12" stroke-linecap="square" stroke-linejoin="bevel" transform="matrix(1,0,0,1,0,0)"
font-family="Arial" font-size="128" font-weight="400" font-style="normal" 
>
<polyline fill="none" vector-effect="none" points="0,2237 9999,2237 " />
<polyline fill="none" vector-effect="none" points="6268,0 6268,9999 " />
</g>

<g fill="#ffa500" fill-opacity="1" stroke="#000000" stroke-opacity="1" stroke-width="1" stroke-linecap="square" stroke-linejoin="bevel" transform="matrix(1,0,0,1,0,0)"
font-family="Arial" font-size="128" font-weight="400" font-style="normal" 
>
<text fill="#000000" fill-opacity="1" stroke="none" xml:space="preserve" x="6268" y="2237" font-family="Arial" font-size="128" font-weight="400" font-style="normal" 
 >2</text>
</g>

<g fill="#000000" fill-opacity="0" stroke="#ffc0cb" stroke-opacity="1" stroke-width="24" stroke-linecap="square" stroke-linejoin="bevel" transform="matrix(1,0,0,1,0,0)"
font-family="Arial" font-size="128" font-weight="400" font-style="normal" 
>
<rect x="5400" y="2900" width="868" height="1700"/>
</g>

<g fill="#ffc0cb" fill-opacity="1" stroke="#ffc0cb" stroke-opacity="1" stroke-width="24" stroke-linecap="square" stroke-linejoin="bevel" transform="matrix(1,0,0,1,0,0)"
font-family="Arial" font-size="128" font-weight="400" font-style="normal" 
>
<circle cx="5834" cy="3750" r="50"/>
</g>

<g fill="#000000" fill-opacity="0" stroke="#ffff00" stroke-opacity="1" stroke-width="24" stroke-linecap="square" stroke-linejoin="bevel" transform="matrix(1,0,0,1,0,0)"
font-family="Arial" font-size="128" font-weight="400" font-style="normal" 
>
<rect x="3731" y="2900" width="868" height="1700"/>
</g>

<g fill="#ffff00" fill-opacity="1" stroke="#ffff00" stroke-opacity="1" stroke-width="24" stroke-linecap="square" stroke-linejoin="bevel" transform="matrix(1,0,0,1,0,0)"
font-family="Arial" font-size="128" font-weight="400" font-style="normal" 
>
<circle cx="4165" cy="3750" r="50"/>
</g>

<g fill="#000000" fill-opacity="0" stroke="#ffc0cb" stroke-opacity="1" stroke-width="24" stroke-linecap="square" stroke-linejoin="bevel" transform="matrix(1,0,0,1,0,0)"
font-family="Arial" font-size="128" font-weight="400" font-style="normal" 
>
<rect x="2262" y="5400" width="338" height="1700"/>
</g>

<g fill="#ffc0cb" fill-opacity="1" stroke="#ffc0cb" stroke-opacity="1" stroke-width="24" stroke-linecap="square" stroke-linejoin="bevel" transform="matrix(1,0,0,1,0,0)"
font-family="Arial" font-size="128" font-weight="400" font-style="normal" 
>
<circle cx="2431" cy="6250" r="50"/>
</g>

<g fill="#000000" fill-opacity="0" stroke="#ffff00" stroke-opacity="1" stroke-width="24" stroke-linecap="square" stroke-linejoin="bevel" transform="matrix(1,0,0,1,0,0)"
font-family="Arial" font-size="128" font-weight="400" font-style="normal" 
>
<rect x="7399" y="5400" width="338" height="1700"/>
</g>

<g fill="#ffff00" fill-opacity="1" stroke="#ffff00" stroke-opacity="1" stroke-width="24" stroke-linecap="square" stroke-linejoin="bevel" transform="matrix(1,0,0,1,0,0)"
font-family="Arial" font-size="128" font-weight="400" font-style="normal" 
>
<circle cx="7568" cy="6250" r="50"/>
</g>

<g fill="#000000" fill-opacity="0" stroke="#ffc0cb" stroke-opacity="1" stroke-width="24" stroke-linecap="square" stroke-linejoin="bevel" transform="matrix(1,0,0,1,0,0)"
font-family="Arial" font-size="128" font-weight="400" font-style="normal" 
>
<rect x="2262" y="7900" width="1469" height="1700"/>
</g>

<g fill="#ffc0cb" fill-opacity="1" stroke="#ffc0cb" stroke-opacity="1" stroke-width="24" stroke-linecap="square" stroke-linejoin="bevel" transform="matrix(1,0,0,1,0,0)"
font-family="Arial" font-size="128" font-weight="400" font-style="normal" 
>
<circle cx="2996" cy="8750" r="50"/>
</g>

<g fill="#000000" fill-opacity="0" stroke="#ffff00" stroke-opacity="1" stroke-width="24" stroke-linecap="square" stroke-linejoin="bevel" transform="matrix(1,0,0,1,0,0)"
font-family="Arial" font-size="128" font-weight="400" font-style="normal" 
>
<rect x="6268" y="7900" width="1469" height="1700"/>
</g>

<g fill="#ffff00" fill-opacity="1" stroke="#ffff00" stroke-opacity="1" stroke-width="24" stroke-linecap="square" stroke-linejoin="bevel" transform="matrix(1,0,0,1,0,0)"
font-family="Arial" font-size="128" font-weight="400" font-style="normal" 
>
<circle cx="7002" cy="8750" r="50"/>
</g>

<g fill="#000000" fill-opacity="0" stroke="#008000" stroke-opacity="1" stroke-width="24" stroke-linecap="square" stroke-linejoin="bevel" transform="matrix(1,0,0,1,0,0)"
font-family="Arial" font-size="128" font-weight="400" font-style="normal" 
>
<rect x="400" y="2900" width="1862" height="1700"/>
</g>

<g fill="#008000" fill-opacity="1" stroke="#008000" stroke-opacity="1" stroke-width="24" stroke-linecap="square" stroke-linejoin="bevel" transform="matrix(1,0,0,1,0,0)"
font-family="Arial" font-size="128" font-weight="400" font-style="normal" 
>
<circle cx="1331" cy="3750" r="50"/>
</g>

<g fill="#000000" fill-opacity="0" stroke="#00ffff" stroke-opacity="1" stroke-width="24" stroke-linecap="square" stroke-linejoin="bevel" transform="matrix(1,0,0,1,0,0)"
font-family="Arial" font-size="128" font-weight="400" font-style="normal" 
>
<rect x="7737" y="3857" width="1863" height="742"/>
</g>

<g fill="#00ffff" fill-opacity="1" stroke="#00ffff" stroke-opacity="1" stroke-width="24" stroke-linecap="square" stroke-linejoin="bevel" transform="matrix(1,0,0,1,0,0)"
font-family="Arial" font-size="128" font-weight="400" font-style="normal" 
>
<circle cx="8668" cy="4228" r="50"/>
</g>

<g fill="#000000" fill-opacity="0" stroke="#008000" stroke-opacity="1" stroke-width="24" stroke-linecap="square" stroke-linejoin="bevel" transform="matrix(1,0,0,1,0,0)"
font-family="Arial" font-size="128" font-weight="400" font-style="normal" 
>
<rect x="3731" y="5400" width="868" height="1700"/>
</g>

<g fill="#008000" fill-opacity="1" stroke="#008000" stroke-opacity="1" stroke-width="24" stroke-linecap="square" stroke-linejoin="bevel" transform="matrix(1,0,0,1,0,0)"
font-family="Arial" font-size="128" font-weight="400" font-style="normal" 
>
<circle cx="4165" cy="6250" r="50"/>
</g>

<g fill="#000000" fill-opacity="0" stroke="#00ffff" stroke-opacity="1" stroke-width="24" stroke-linecap="square" stroke-linejoin="bevel" transform="matrix(1,0,0,1,0,0)"
font-family="Arial" font-size="128" font-weight="400" font-style="normal" 
>
<rect x="5400" y="5400" width="868" height="1700"/>
</g>

<g fill="#00ffff" fill-opacity="1" stroke="#00ffff" stroke-opacity="1" stroke-width="24" stroke-linecap="square" stroke-linejoin="bevel" transform="matrix(1,0,0,1,0,0)"
font-family="Arial" font-size="128" font-weight="400" font-style="normal" 
>
<circle cx="5834" cy="6250" r="50"/>
</g>

<g fill="#000000" fill-opacity="0" stroke="#008000" stroke-opacity="1" stroke-width="24" stroke-linecap="square" stroke-linejoin="bevel" transform="matrix(1,0,0,1,0,0)"
font-family="Arial" font-size="128" font-weight="400" font-style="normal" 
>
<rect x="400" y="7900" width="1862" height="1700"/>
</g>

<g fill="#008000" fill-opacity="1" stroke="#008000" stroke-opacity="1" stroke-width="24" stroke-linecap="square" stroke-linejoin="bevel" transform="matrix(1,0,0,1,0,0)"
font-family="Arial" font-size="128" font-weight="400" font-style="normal" 
>
<circle cx="1331" cy="8750" r="50"/>
</g>

<g fill="#000000" fill-opacity="0" stroke="#00ffff" stroke-opacity="1" stroke-width="24" stroke-linecap="square" stroke-linejoin="bevel" transform="matrix(1,0,0,1,0,0)"
font-family="Arial" font-size="128" font-weight="400" font-style="normal" 
>
<rect x="7737" y="7900" width="1863" height="1700"/>
</g>

<g fill="#00ffff" fill-opacity="1" stroke="#00ffff" stroke-opacity="1" stroke-width="24" stroke-linecap="square" stroke-linejoin="bevel" transform="matrix(1,0,0,1,0,0)"
font-family="Arial" font-size="128" font-weight="400" font-style="normal" 
>
<circle cx="8668" cy="8750" r="50"/>
</g>
</g>
</svg>
