<?xml version="1.0" encoding="UTF-8" standalone="no"?>
<svg width="3527.78mm" height="3527.78mm"
 viewBox="0 0 10000 10000"
 xmlns="http://www.w3.org/2000/svg" xmlns:xlink="http://www.w3.org/1999/xlink" version="1.2" baseProfile="tiny">
<title>Di 2D SVG CodinGame Visual Debugger</title>
<desc>Game state visualizer for a given state data as text</desc>
<defs>
</defs>
<g fill="none" stroke="black" stroke-width="1" fill-rule="evenodd" stroke-linecap="square" stroke-linejoin="bevel" >

<g fill="#000000" fill-opacity="1" stroke="none" transform="matrix(1,0,0,1,0,0)"
font-family="Segoe UI" font-size="9" font-weight="400" font-style="normal" 
>
<rect x="0" y="0" width="10000" height="10000"/>
</g>

<g fill="none" stroke="#ffffff" stroke-opacity="1" stroke-width="1" stroke-linecap="square" stroke-linejoin="bevel" transform="matrix(1,0,0,1,0,0)"
font-family="Arial" font-size="256" font-weight="400" font-style="normal" 
>
<text fill="#ffffff" fill-opacity="1" stroke="none" xml:space="preserve" x="64" y="256" font-family="Arial" font-size="256" font-weight="400" font-style="normal" 
 >TURN: 0:5</text>
</g>

<g fill="#808080" fill-opacity="1" stroke="#808080" stroke-opacity="1" stroke-width="24" stroke-linecap="square" stroke-linejoin="bevel" transform="matrix(1,0,0,1,0,0)"
font-family="Arial" font-size="256" font-weight="400" font-style="normal" 
>
<circle cx="7999" cy="500" r="800"/>
</g>

<g fill="#800080" fill-opacity="1" stroke="#800080" stroke-opacity="1" stroke-width="24" stroke-linecap="square" stroke-linejoin="bevel" transform="matrix(1,0,0,1,0,0)"
font-family="Arial" font-size="256" font-weight="400" font-style="normal" 
>
<circle cx="7999" cy="500" r="250"/>
</g>

<g fill="#800080" fill-opacity="1" stroke="#000000" stroke-opacity="1" stroke-width="1" stroke-linecap="square" stroke-linejoin="bevel" transform="matrix(1,0,0,1,0,0)"
font-family="Arial" font-size="128" font-weight="400" font-style="normal" 
>
<text fill="#000000" fill-opacity="1" stroke="none" xml:space="preserve" x="7959" y="500" font-family="Arial" font-size="128" font-weight="400" font-style="normal" 
 >1</text>
</g>

<g fill="#800080" fill-opacity="1" stroke="#000000" stroke-opacity="1" stroke-width="1" stroke-linecap="square" stroke-linejoin="bevel" transform="matrix(1,0,0,1,0,0)"
font-family="Arial" font-size="128" font-weight="400" font-style="normal" 
>
<text fill="#000000" fill-opacity="1" stroke="none" xml:space="preserve" x="7649" y="650" font-family="Arial" font-size="128" font-weight="400" font-style="normal" 
 >(7999, 500)</text>
</g>

<g fill="#808080" fill-opacity="1" stroke="#808080" stroke-opacity="1" stroke-width="24" stroke-linecap="square" stroke-linejoin="bevel" transform="matrix(1,0,0,1,0,0)"
font-family="Arial" font-size="128" font-weight="400" font-style="normal" 
>
<circle cx="3999" cy="500" r="800"/>
</g>

<g fill="#800080" fill-opacity="1" stroke="#800080" stroke-opacity="1" stroke-width="24" stroke-linecap="square" stroke-linejoin="bevel" transform="matrix(1,0,0,1,0,0)"
font-family="Arial" font-size="128" font-weight="400" font-style="normal" 
>
<circle cx="3999" cy="500" r="250"/>
</g>

<g fill="#800080" fill-opacity="1" stroke="#000000" stroke-opacity="1" stroke-width="1" stroke-linecap="square" stroke-linejoin="bevel" transform="matrix(1,0,0,1,0,0)"
font-family="Arial" font-size="128" font-weight="400" font-style="normal" 
>
<text fill="#000000" fill-opacity="1" stroke="none" xml:space="preserve" x="3959" y="500" font-family="Arial" font-size="128" font-weight="400" font-style="normal" 
 >3</text>
</g>

<g fill="#800080" fill-opacity="1" stroke="#000000" stroke-opacity="1" stroke-width="1" stroke-linecap="square" stroke-linejoin="bevel" transform="matrix(1,0,0,1,0,0)"
font-family="Arial" font-size="128" font-weight="400" font-style="normal" 
>
<text fill="#000000" fill-opacity="1" stroke="none" xml:space="preserve" x="3649" y="650" font-family="Arial" font-size="128" font-weight="400" font-style="normal" 
 >(3999, 500)</text>
</g>

<g fill="#d3d3d3" fill-opacity="1" stroke="#d3d3d3" stroke-opacity="1" stroke-width="24" stroke-linecap="square" stroke-linejoin="bevel" transform="matrix(1,0,0,1,0,0)"
font-family="Arial" font-size="128" font-weight="400" font-style="normal" 
>
<circle cx="2000" cy="500" r="800"/>
</g>

<g fill="#ffa500" fill-opacity="1" stroke="#ffa500" stroke-opacity="1" stroke-width="24" stroke-linecap="square" stroke-linejoin="bevel" transform="matrix(1,0,0,1,0,0)"
font-family="Arial" font-size="128" font-weight="400" font-style="normal" 
>
<circle cx="2000" cy="500" r="250"/>
</g>

<g fill="#ffa500" fill-opacity="1" stroke="#ffa500" stroke-opacity="1" stroke-dasharray="48,24" stroke-dashoffset="0" stroke-width="12" stroke-linecap="square" stroke-linejoin="bevel" transform="matrix(1,0,0,1,0,0)"
font-family="Arial" font-size="128" font-weight="400" font-style="normal" 
>
<polyline fill="none" vector-effect="none" points="0,500 9999,500 " />
<polyline fill="none" vector-effect="none" points="2000,0 2000,9999 " />
</g>

<g fill="#ffa500" fill-opacity="1" stroke="#000000" stroke-opacity="1" stroke-width="1" stroke-linecap="square" stroke-linejoin="bevel" transform="matrix(1,0,0,1,0,0)"
font-family="Arial" font-size="128" font-weight="400" font-style="normal" 
>
<text fill="#000000" fill-opacity="1" stroke="none" xml:space="preserve" x="1960" y="500" font-family="Arial" font-size="128" font-weight="400" font-style="normal" 
 >0</text>
</g>

<g fill="#ffa500" fill-opacity="1" stroke="#000000" stroke-opacity="1" stroke-width="1" stroke-linecap="square" stroke-linejoin="bevel" transform="matrix(1,0,0,1,0,0)"
font-family="Arial" font-size="128" font-weight="400" font-style="normal" 
>
<text fill="#000000" fill-opacity="1" stroke="none" xml:space="preserve" x="1650" y="650" font-family="Arial" font-size="128" font-weight="400" font-style="normal" 
 >(2000, 500)</text>
</g>

<g fill="#d3d3d3" fill-opacity="1" stroke="#d3d3d3" stroke-opacity="1" stroke-width="24" stroke-linecap="square" stroke-linejoin="bevel" transform="matrix(1,0,0,1,0,0)"
font-family="Arial" font-size="128" font-weight="400" font-style="normal" 
>
<circle cx="6000" cy="500" r="800"/>
</g>

<g fill="#ffa500" fill-opacity="1" stroke="#ffa500" stroke-opacity="1" stroke-width="24" stroke-linecap="square" stroke-linejoin="bevel" transform="matrix(1,0,0,1,0,0)"
font-family="Arial" font-size="128" font-weight="400" font-style="normal" 
>
<circle cx="6000" cy="500" r="250"/>
</g>

<g fill="#ffa500" fill-opacity="1" stroke="#ffa500" stroke-opacity="1" stroke-dasharray="48,24" stroke-dashoffset="0" stroke-width="12" stroke-linecap="square" stroke-linejoin="bevel" transform="matrix(1,0,0,1,0,0)"
font-family="Arial" font-size="128" font-weight="400" font-style="normal" 
>
<polyline fill="none" vector-effect="none" points="0,500 9999,500 " />
<polyline fill="none" vector-effect="none" points="6000,0 6000,9999 " />
</g>

<g fill="#ffa500" fill-opacity="1" stroke="#000000" stroke-opacity="1" stroke-width="1" stroke-linecap="square" stroke-linejoin="bevel" transform="matrix(1,0,0,1,0,0)"
font-family="Arial" font-size="128" font-weight="400" font-style="normal" 
>
<text fill="#000000" fill-opacity="1" stroke="none" xml:space="preserve" x="5960" y="500" font-family="Arial" font-size="128" font-weight="400" font-style="normal" 
 >2</text>
</g>

<g fill="#ffa500" fill-opacity="1" stroke="#000000" stroke-opacity="1" stroke-width="1" stroke-linecap="square" stroke-linejoin="bevel" transform="matrix(1,0,0,1,0,0)"
font-family="Arial" font-size="128" font-weight="400" font-style="normal" 
>
<text fill="#000000" fill-opacity="1" stroke="none" xml:space="preserve" x="5650" y="650" font-family="Arial" font-size="128" font-weight="400" font-style="normal" 
 >(6000, 500)</text>
</g>

<g fill="#000000" fill-opacity="0" stroke="#ffc0cb" stroke-opacity="1" stroke-width="24" stroke-linecap="square" stroke-linejoin="bevel" transform="matrix(1,0,0,1,0,0)"
font-family="Arial" font-size="128" font-weight="400" font-style="normal" 
>
<rect x="1000" y="3500" width="1000" height="500"/>
</g>

<g fill="#000000" fill-opacity="0" stroke="#ffc0cb" stroke-opacity="1" stroke-width="1" stroke-linecap="square" stroke-linejoin="bevel" transform="matrix(1,0,0,1,0,0)"
font-family="Arial" font-size="128" font-weight="400" font-style="normal" 
>
<text fill="#ffc0cb" fill-opacity="1" stroke="none" xml:space="preserve" x="1000" y="3450" font-family="Arial" font-size="128" font-weight="400" font-style="normal" 
 >(1000, 3500)</text>
</g>

<g fill="#000000" fill-opacity="0" stroke="#ffc0cb" stroke-opacity="1" stroke-width="1" stroke-linecap="square" stroke-linejoin="bevel" transform="matrix(1,0,0,1,0,0)"
font-family="Arial" font-size="128" font-weight="400" font-style="normal" 
>
<text fill="#ffc0cb" fill-opacity="1" stroke="none" xml:space="preserve" x="2000" y="3950" font-family="Arial" font-size="128" font-weight="400" font-style="normal" 
 >(2000, 4000)</text>
</g>

<g fill="#ffc0cb" fill-opacity="1" stroke="#ffc0cb" stroke-opacity="1" stroke-width="24" stroke-linecap="square" stroke-linejoin="bevel" transform="matrix(1,0,0,1,0,0)"
font-family="Arial" font-size="128" font-weight="400" font-style="normal" 
>
<circle cx="1500" cy="3750" r="50"/>
</g>

<g fill="#ffc0cb" fill-opacity="1" stroke="#ffc0cb" stroke-opacity="1" stroke-width="1" stroke-linecap="square" stroke-linejoin="bevel" transform="matrix(1,0,0,1,0,0)"
font-family="Arial" font-size="128" font-weight="400" font-style="normal" 
>
<text fill="#ffc0cb" fill-opacity="1" stroke="none" xml:space="preserve" x="1500" y="3700" font-family="Arial" font-size="128" font-weight="400" font-style="normal" 
 >(1500, 3750)</text>
</g>

<g fill="#ffc0cb" fill-opacity="1" stroke="#ffc0cb" stroke-opacity="1" stroke-width="1" stroke-linecap="square" stroke-linejoin="bevel" transform="matrix(1,0,0,1,0,0)"
font-family="Arial" font-size="128" font-weight="400" font-style="normal" 
>
<text fill="#ffc0cb" fill-opacity="1" stroke="none" xml:space="preserve" x="1300" y="3750" font-family="Arial" font-size="128" font-weight="400" font-style="normal" 
 >4</text>
</g>

<g fill="#000000" fill-opacity="0" stroke="#ffff00" stroke-opacity="1" stroke-width="24" stroke-linecap="square" stroke-linejoin="bevel" transform="matrix(1,0,0,1,0,0)"
font-family="Arial" font-size="128" font-weight="400" font-style="normal" 
>
<rect x="7999" y="3500" width="1001" height="500"/>
</g>

<g fill="#000000" fill-opacity="0" stroke="#ffff00" stroke-opacity="1" stroke-width="1" stroke-linecap="square" stroke-linejoin="bevel" transform="matrix(1,0,0,1,0,0)"
font-family="Arial" font-size="128" font-weight="400" font-style="normal" 
>
<text fill="#ffff00" fill-opacity="1" stroke="none" xml:space="preserve" x="7999" y="3450" font-family="Arial" font-size="128" font-weight="400" font-style="normal" 
 >(7999, 3500)</text>
</g>

<g fill="#000000" fill-opacity="0" stroke="#ffff00" stroke-opacity="1" stroke-width="1" stroke-linecap="square" stroke-linejoin="bevel" transform="matrix(1,0,0,1,0,0)"
font-family="Arial" font-size="128" font-weight="400" font-style="normal" 
>
<text fill="#ffff00" fill-opacity="1" stroke="none" xml:space="preserve" x="9000" y="3950" font-family="Arial" font-size="128" font-weight="400" font-style="normal" 
 >(9000, 4000)</text>
</g>

<g fill="#ffff00" fill-opacity="1" stroke="#ffff00" stroke-opacity="1" stroke-width="24" stroke-linecap="square" stroke-linejoin="bevel" transform="matrix(1,0,0,1,0,0)"
font-family="Arial" font-size="128" font-weight="400" font-style="normal" 
>
<circle cx="8499" cy="3750" r="50"/>
</g>

<g fill="#ffff00" fill-opacity="1" stroke="#ffff00" stroke-opacity="1" stroke-width="1" stroke-linecap="square" stroke-linejoin="bevel" transform="matrix(1,0,0,1,0,0)"
font-family="Arial" font-size="128" font-weight="400" font-style="normal" 
>
<text fill="#ffff00" fill-opacity="1" stroke="none" xml:space="preserve" x="8499" y="3700" font-family="Arial" font-size="128" font-weight="400" font-style="normal" 
 >(8499, 3750)</text>
</g>

<g fill="#ffff00" fill-opacity="1" stroke="#ffff00" stroke-opacity="1" stroke-width="1" stroke-linecap="square" stroke-linejoin="bevel" transform="matrix(1,0,0,1,0,0)"
font-family="Arial" font-size="128" font-weight="400" font-style="normal" 
>
<text fill="#ffff00" fill-opacity="1" stroke="none" xml:space="preserve" x="8299" y="3750" font-family="Arial" font-size="128" font-weight="400" font-style="normal" 
 >5</text>
</g>

<g fill="#000000" fill-opacity="0" stroke="#ffc0cb" stroke-opacity="1" stroke-width="24" stroke-linecap="square" stroke-linejoin="bevel" transform="matrix(1,0,0,1,0,0)"
font-family="Arial" font-size="128" font-weight="400" font-style="normal" 
>
<rect x="2000" y="6000" width="1999" height="500"/>
</g>

<g fill="#000000" fill-opacity="0" stroke="#ffc0cb" stroke-opacity="1" stroke-width="1" stroke-linecap="square" stroke-linejoin="bevel" transform="matrix(1,0,0,1,0,0)"
font-family="Arial" font-size="128" font-weight="400" font-style="normal" 
>
<text fill="#ffc0cb" fill-opacity="1" stroke="none" xml:space="preserve" x="2000" y="5950" font-family="Arial" font-size="128" font-weight="400" font-style="normal" 
 >(2000, 6000)</text>
</g>

<g fill="#000000" fill-opacity="0" stroke="#ffc0cb" stroke-opacity="1" stroke-width="1" stroke-linecap="square" stroke-linejoin="bevel" transform="matrix(1,0,0,1,0,0)"
font-family="Arial" font-size="128" font-weight="400" font-style="normal" 
>
<text fill="#ffc0cb" fill-opacity="1" stroke="none" xml:space="preserve" x="3999" y="6450" font-family="Arial" font-size="128" font-weight="400" font-style="normal" 
 >(3999, 6500)</text>
</g>

<g fill="#ffc0cb" fill-opacity="1" stroke="#ffc0cb" stroke-opacity="1" stroke-width="24" stroke-linecap="square" stroke-linejoin="bevel" transform="matrix(1,0,0,1,0,0)"
font-family="Arial" font-size="128" font-weight="400" font-style="normal" 
>
<circle cx="2999" cy="6250" r="50"/>
</g>

<g fill="#ffc0cb" fill-opacity="1" stroke="#ffc0cb" stroke-opacity="1" stroke-width="1" stroke-linecap="square" stroke-linejoin="bevel" transform="matrix(1,0,0,1,0,0)"
font-family="Arial" font-size="128" font-weight="400" font-style="normal" 
>
<text fill="#ffc0cb" fill-opacity="1" stroke="none" xml:space="preserve" x="2999" y="6200" font-family="Arial" font-size="128" font-weight="400" font-style="normal" 
 >(2999, 6250)</text>
</g>

<g fill="#ffc0cb" fill-opacity="1" stroke="#ffc0cb" stroke-opacity="1" stroke-width="1" stroke-linecap="square" stroke-linejoin="bevel" transform="matrix(1,0,0,1,0,0)"
font-family="Arial" font-size="128" font-weight="400" font-style="normal" 
>
<text fill="#ffc0cb" fill-opacity="1" stroke="none" xml:space="preserve" x="2799" y="6250" font-family="Arial" font-size="128" font-weight="400" font-style="normal" 
 >6</text>
</g>

<g fill="#000000" fill-opacity="0" stroke="#ffff00" stroke-opacity="1" stroke-width="24" stroke-linecap="square" stroke-linejoin="bevel" transform="matrix(1,0,0,1,0,0)"
font-family="Arial" font-size="128" font-weight="400" font-style="normal" 
>
<rect x="6000" y="6000" width="1999" height="500"/>
</g>

<g fill="#000000" fill-opacity="0" stroke="#ffff00" stroke-opacity="1" stroke-width="1" stroke-linecap="square" stroke-linejoin="bevel" transform="matrix(1,0,0,1,0,0)"
font-family="Arial" font-size="128" font-weight="400" font-style="normal" 
>
<text fill="#ffff00" fill-opacity="1" stroke="none" xml:space="preserve" x="6000" y="5950" font-family="Arial" font-size="128" font-weight="400" font-style="normal" 
 >(6000, 6000)</text>
</g>

<g fill="#000000" fill-opacity="0" stroke="#ffff00" stroke-opacity="1" stroke-width="1" stroke-linecap="square" stroke-linejoin="bevel" transform="matrix(1,0,0,1,0,0)"
font-family="Arial" font-size="128" font-weight="400" font-style="normal" 
>
<text fill="#ffff00" fill-opacity="1" stroke="none" xml:space="preserve" x="7999" y="6450" font-family="Arial" font-size="128" font-weight="400" font-style="normal" 
 >(7999, 6500)</text>
</g>

<g fill="#ffff00" fill-opacity="1" stroke="#ffff00" stroke-opacity="1" stroke-width="24" stroke-linecap="square" stroke-linejoin="bevel" transform="matrix(1,0,0,1,0,0)"
font-family="Arial" font-size="128" font-weight="400" font-style="normal" 
>
<circle cx="6999" cy="6250" r="50"/>
</g>

<g fill="#ffff00" fill-opacity="1" stroke="#ffff00" stroke-opacity="1" stroke-width="1" stroke-linecap="square" stroke-linejoin="bevel" transform="matrix(1,0,0,1,0,0)"
font-family="Arial" font-size="128" font-weight="400" font-style="normal" 
>
<text fill="#ffff00" fill-opacity="1" stroke="none" xml:space="preserve" x="6999" y="6200" font-family="Arial" font-size="128" font-weight="400" font-style="normal" 
 >(6999, 6250)</text>
</g>

<g fill="#ffff00" fill-opacity="1" stroke="#ffff00" stroke-opacity="1" stroke-width="1" stroke-linecap="square" stroke-linejoin="bevel" transform="matrix(1,0,0,1,0,0)"
font-family="Arial" font-size="128" font-weight="400" font-style="normal" 
>
<text fill="#ffff00" fill-opacity="1" stroke="none" xml:space="preserve" x="6799" y="6250" font-family="Arial" font-size="128" font-weight="400" font-style="normal" 
 >7</text>
</g>

<g fill="#000000" fill-opacity="0" stroke="#ffc0cb" stroke-opacity="1" stroke-width="24" stroke-linecap="square" stroke-linejoin="bevel" transform="matrix(1,0,0,1,0,0)"
font-family="Arial" font-size="128" font-weight="400" font-style="normal" 
>
<rect x="7999" y="8500" width="1001" height="500"/>
</g>

<g fill="#000000" fill-opacity="0" stroke="#ffc0cb" stroke-opacity="1" stroke-width="1" stroke-linecap="square" stroke-linejoin="bevel" transform="matrix(1,0,0,1,0,0)"
font-family="Arial" font-size="128" font-weight="400" font-style="normal" 
>
<text fill="#ffc0cb" fill-opacity="1" stroke="none" xml:space="preserve" x="7999" y="8450" font-family="Arial" font-size="128" font-weight="400" font-style="normal" 
 >(7999, 8500)</text>
</g>

<g fill="#000000" fill-opacity="0" stroke="#ffc0cb" stroke-opacity="1" stroke-width="1" stroke-linecap="square" stroke-linejoin="bevel" transform="matrix(1,0,0,1,0,0)"
font-family="Arial" font-size="128" font-weight="400" font-style="normal" 
>
<text fill="#ffc0cb" fill-opacity="1" stroke="none" xml:space="preserve" x="9000" y="8950" font-family="Arial" font-size="128" font-weight="400" font-style="normal" 
 >(9000, 9000)</text>
</g>

<g fill="#ffc0cb" fill-opacity="1" stroke="#ffc0cb" stroke-opacity="1" stroke-width="24" stroke-linecap="square" stroke-linejoin="bevel" transform="matrix(1,0,0,1,0,0)"
font-family="Arial" font-size="128" font-weight="400" font-style="normal" 
>
<circle cx="8499" cy="8750" r="50"/>
</g>

<g fill="#ffc0cb" fill-opacity="1" stroke="#ffc0cb" stroke-opacity="1" stroke-width="1" stroke-linecap="square" stroke-linejoin="bevel" transform="matrix(1,0,0,1,0,0)"
font-family="Arial" font-size="128" font-weight="400" font-style="normal" 
>
<text fill="#ffc0cb" fill-opacity="1" stroke="none" xml:space="preserve" x="8499" y="8700" font-family="Arial" font-size="128" font-weight="400" font-style="normal" 
 >(8499, 8750)</text>
</g>

<g fill="#ffc0cb" fill-opacity="1" stroke="#ffc0cb" stroke-opacity="1" stroke-width="1" stroke-linecap="square" stroke-linejoin="bevel" transform="matrix(1,0,0,1,0,0)"
font-family="Arial" font-size="128" font-weight="400" font-style="normal" 
>
<text fill="#ffc0cb" fill-opacity="1" stroke="none" xml:space="preserve" x="8299" y="8750" font-family="Arial" font-size="128" font-weight="400" font-style="normal" 
 >8</text>
</g>

<g fill="#000000" fill-opacity="0" stroke="#ffff00" stroke-opacity="1" stroke-width="24" stroke-linecap="square" stroke-linejoin="bevel" transform="matrix(1,0,0,1,0,0)"
font-family="Arial" font-size="128" font-weight="400" font-style="normal" 
>
<rect x="1000" y="8500" width="1000" height="500"/>
</g>

<g fill="#000000" fill-opacity="0" stroke="#ffff00" stroke-opacity="1" stroke-width="1" stroke-linecap="square" stroke-linejoin="bevel" transform="matrix(1,0,0,1,0,0)"
font-family="Arial" font-size="128" font-weight="400" font-style="normal" 
>
<text fill="#ffff00" fill-opacity="1" stroke="none" xml:space="preserve" x="1000" y="8450" font-family="Arial" font-size="128" font-weight="400" font-style="normal" 
 >(1000, 8500)</text>
</g>

<g fill="#000000" fill-opacity="0" stroke="#ffff00" stroke-opacity="1" stroke-width="1" stroke-linecap="square" stroke-linejoin="bevel" transform="matrix(1,0,0,1,0,0)"
font-family="Arial" font-size="128" font-weight="400" font-style="normal" 
>
<text fill="#ffff00" fill-opacity="1" stroke="none" xml:space="preserve" x="2000" y="8950" font-family="Arial" font-size="128" font-weight="400" font-style="normal" 
 >(2000, 9000)</text>
</g>

<g fill="#ffff00" fill-opacity="1" stroke="#ffff00" stroke-opacity="1" stroke-width="24" stroke-linecap="square" stroke-linejoin="bevel" transform="matrix(1,0,0,1,0,0)"
font-family="Arial" font-size="128" font-weight="400" font-style="normal" 
>
<circle cx="1500" cy="8750" r="50"/>
</g>

<g fill="#ffff00" fill-opacity="1" stroke="#ffff00" stroke-opacity="1" stroke-width="1" stroke-linecap="square" stroke-linejoin="bevel" transform="matrix(1,0,0,1,0,0)"
font-family="Arial" font-size="128" font-weight="400" font-style="normal" 
>
<text fill="#ffff00" fill-opacity="1" stroke="none" xml:space="preserve" x="1500" y="8700" font-family="Arial" font-size="128" font-weight="400" font-style="normal" 
 >(1500, 8750)</text>
</g>

<g fill="#ffff00" fill-opacity="1" stroke="#ffff00" stroke-opacity="1" stroke-width="1" stroke-linecap="square" stroke-linejoin="bevel" transform="matrix(1,0,0,1,0,0)"
font-family="Arial" font-size="128" font-weight="400" font-style="normal" 
>
<text fill="#ffff00" fill-opacity="1" stroke="none" xml:space="preserve" x="1300" y="8750" font-family="Arial" font-size="128" font-weight="400" font-style="normal" 
 >9</text>
</g>

<g fill="#000000" fill-opacity="0" stroke="#008000" stroke-opacity="1" stroke-width="24" stroke-linecap="square" stroke-linejoin="bevel" transform="matrix(1,0,0,1,0,0)"
font-family="Arial" font-size="128" font-weight="400" font-style="normal" 
>
<rect x="2000" y="3500" width="1999" height="500"/>
</g>

<g fill="#000000" fill-opacity="0" stroke="#008000" stroke-opacity="1" stroke-width="1" stroke-linecap="square" stroke-linejoin="bevel" transform="matrix(1,0,0,1,0,0)"
font-family="Arial" font-size="128" font-weight="400" font-style="normal" 
>
<text fill="#008000" fill-opacity="1" stroke="none" xml:space="preserve" x="2000" y="3450" font-family="Arial" font-size="128" font-weight="400" font-style="normal" 
 >(2000, 3500)</text>
</g>

<g fill="#000000" fill-opacity="0" stroke="#008000" stroke-opacity="1" stroke-width="1" stroke-linecap="square" stroke-linejoin="bevel" transform="matrix(1,0,0,1,0,0)"
font-family="Arial" font-size="128" font-weight="400" font-style="normal" 
>
<text fill="#008000" fill-opacity="1" stroke="none" xml:space="preserve" x="3999" y="3950" font-family="Arial" font-size="128" font-weight="400" font-style="normal" 
 >(3999, 4000)</text>
</g>

<g fill="#008000" fill-opacity="1" stroke="#008000" stroke-opacity="1" stroke-width="24" stroke-linecap="square" stroke-linejoin="bevel" transform="matrix(1,0,0,1,0,0)"
font-family="Arial" font-size="128" font-weight="400" font-style="normal" 
>
<circle cx="2999" cy="3750" r="50"/>
</g>

<g fill="#008000" fill-opacity="1" stroke="#008000" stroke-opacity="1" stroke-width="1" stroke-linecap="square" stroke-linejoin="bevel" transform="matrix(1,0,0,1,0,0)"
font-family="Arial" font-size="128" font-weight="400" font-style="normal" 
>
<text fill="#008000" fill-opacity="1" stroke="none" xml:space="preserve" x="2999" y="3700" font-family="Arial" font-size="128" font-weight="400" font-style="normal" 
 >(2999, 3750)</text>
</g>

<g fill="#008000" fill-opacity="1" stroke="#008000" stroke-opacity="1" stroke-width="1" stroke-linecap="square" stroke-linejoin="bevel" transform="matrix(1,0,0,1,0,0)"
font-family="Arial" font-size="128" font-weight="400" font-style="normal" 
>
<text fill="#008000" fill-opacity="1" stroke="none" xml:space="preserve" x="2799" y="3750" font-family="Arial" font-size="128" font-weight="400" font-style="normal" 
 >10</text>
</g>

<g fill="#000000" fill-opacity="0" stroke="#00ffff" stroke-opacity="1" stroke-width="24" stroke-linecap="square" stroke-linejoin="bevel" transform="matrix(1,0,0,1,0,0)"
font-family="Arial" font-size="128" font-weight="400" font-style="normal" 
>
<rect x="6000" y="3500" width="1999" height="500"/>
</g>

<g fill="#000000" fill-opacity="0" stroke="#00ffff" stroke-opacity="1" stroke-width="1" stroke-linecap="square" stroke-linejoin="bevel" transform="matrix(1,0,0,1,0,0)"
font-family="Arial" font-size="128" font-weight="400" font-style="normal" 
>
<text fill="#00ffff" fill-opacity="1" stroke="none" xml:space="preserve" x="6000" y="3450" font-family="Arial" font-size="128" font-weight="400" font-style="normal" 
 >(6000, 3500)</text>
</g>

<g fill="#000000" fill-opacity="0" stroke="#00ffff" stroke-opacity="1" stroke-width="1" stroke-linecap="square" stroke-linejoin="bevel" transform="matrix(1,0,0,1,0,0)"
font-family="Arial" font-size="128" font-weight="400" font-style="normal" 
>
<text fill="#00ffff" fill-opacity="1" stroke="none" xml:space="preserve" x="7999" y="3950" font-family="Arial" font-size="128" font-weight="400" font-style="normal" 
 >(7999, 4000)</text>
</g>

<g fill="#00ffff" fill-opacity="1" stroke="#00ffff" stroke-opacity="1" stroke-width="24" stroke-linecap="square" stroke-linejoin="bevel" transform="matrix(1,0,0,1,0,0)"
font-family="Arial" font-size="128" font-weight="400" font-style="normal" 
>
<circle cx="6999" cy="3750" r="50"/>
</g>

<g fill="#00ffff" fill-opacity="1" stroke="#00ffff" stroke-opacity="1" stroke-width="1" stroke-linecap="square" stroke-linejoin="bevel" transform="matrix(1,0,0,1,0,0)"
font-family="Arial" font-size="128" font-weight="400" font-style="normal" 
>
<text fill="#00ffff" fill-opacity="1" stroke="none" xml:space="preserve" x="6999" y="3700" font-family="Arial" font-size="128" font-weight="400" font-style="normal" 
 >(6999, 3750)</text>
</g>

<g fill="#00ffff" fill-opacity="1" stroke="#00ffff" stroke-opacity="1" stroke-width="1" stroke-linecap="square" stroke-linejoin="bevel" transform="matrix(1,0,0,1,0,0)"
font-family="Arial" font-size="128" font-weight="400" font-style="normal" 
>
<text fill="#00ffff" fill-opacity="1" stroke="none" xml:space="preserve" x="6799" y="3750" font-family="Arial" font-size="128" font-weight="400" font-style="normal" 
 >11</text>
</g>

<g fill="#000000" fill-opacity="0" stroke="#008000" stroke-opacity="1" stroke-width="24" stroke-linecap="square" stroke-linejoin="bevel" transform="matrix(1,0,0,1,0,0)"
font-family="Arial" font-size="128" font-weight="400" font-style="normal" 
>
<rect x="1000" y="6000" width="1000" height="500"/>
</g>

<g fill="#000000" fill-opacity="0" stroke="#008000" stroke-opacity="1" stroke-width="1" stroke-linecap="square" stroke-linejoin="bevel" transform="matrix(1,0,0,1,0,0)"
font-family="Arial" font-size="128" font-weight="400" font-style="normal" 
>
<text fill="#008000" fill-opacity="1" stroke="none" xml:space="preserve" x="1000" y="5950" font-family="Arial" font-size="128" font-weight="400" font-style="normal" 
 >(1000, 6000)</text>
</g>

<g fill="#000000" fill-opacity="0" stroke="#008000" stroke-opacity="1" stroke-width="1" stroke-linecap="square" stroke-linejoin="bevel" transform="matrix(1,0,0,1,0,0)"
font-family="Arial" font-size="128" font-weight="400" font-style="normal" 
>
<text fill="#008000" fill-opacity="1" stroke="none" xml:space="preserve" x="2000" y="6450" font-family="Arial" font-size="128" font-weight="400" font-style="normal" 
 >(2000, 6500)</text>
</g>

<g fill="#008000" fill-opacity="1" stroke="#008000" stroke-opacity="1" stroke-width="24" stroke-linecap="square" stroke-linejoin="bevel" transform="matrix(1,0,0,1,0,0)"
font-family="Arial" font-size="128" font-weight="400" font-style="normal" 
>
<circle cx="1500" cy="6250" r="50"/>
</g>

<g fill="#008000" fill-opacity="1" stroke="#008000" stroke-opacity="1" stroke-width="1" stroke-linecap="square" stroke-linejoin="bevel" transform="matrix(1,0,0,1,0,0)"
font-family="Arial" font-size="128" font-weight="400" font-style="normal" 
>
<text fill="#008000" fill-opacity="1" stroke="none" xml:space="preserve" x="1500" y="6200" font-family="Arial" font-size="128" font-weight="400" font-style="normal" 
 >(1500, 6250)</text>
</g>

<g fill="#008000" fill-opacity="1" stroke="#008000" stroke-opacity="1" stroke-width="1" stroke-linecap="square" stroke-linejoin="bevel" transform="matrix(1,0,0,1,0,0)"
font-family="Arial" font-size="128" font-weight="400" font-style="normal" 
>
<text fill="#008000" fill-opacity="1" stroke="none" xml:space="preserve" x="1300" y="6250" font-family="Arial" font-size="128" font-weight="400" font-style="normal" 
 >12</text>
</g>

<g fill="#000000" fill-opacity="0" stroke="#00ffff" stroke-opacity="1" stroke-width="24" stroke-linecap="square" stroke-linejoin="bevel" transform="matrix(1,0,0,1,0,0)"
font-family="Arial" font-size="128" font-weight="400" font-style="normal" 
>
<rect x="7999" y="6000" width="1001" height="500"/>
</g>

<g fill="#000000" fill-opacity="0" stroke="#00ffff" stroke-opacity="1" stroke-width="1" stroke-linecap="square" stroke-linejoin="bevel" transform="matrix(1,0,0,1,0,0)"
font-family="Arial" font-size="128" font-weight="400" font-style="normal" 
>
<text fill="#00ffff" fill-opacity="1" stroke="none" xml:space="preserve" x="7999" y="5950" font-family="Arial" font-size="128" font-weight="400" font-style="normal" 
 >(7999, 6000)</text>
</g>

<g fill="#000000" fill-opacity="0" stroke="#00ffff" stroke-opacity="1" stroke-width="1" stroke-linecap="square" stroke-linejoin="bevel" transform="matrix(1,0,0,1,0,0)"
font-family="Arial" font-size="128" font-weight="400" font-style="normal" 
>
<text fill="#00ffff" fill-opacity="1" stroke="none" xml:space="preserve" x="9000" y="6450" font-family="Arial" font-size="128" font-weight="400" font-style="normal" 
 >(9000, 6500)</text>
</g>

<g fill="#00ffff" fill-opacity="1" stroke="#00ffff" stroke-opacity="1" stroke-width="24" stroke-linecap="square" stroke-linejoin="bevel" transform="matrix(1,0,0,1,0,0)"
font-family="Arial" font-size="128" font-weight="400" font-style="normal" 
>
<circle cx="8499" cy="6250" r="50"/>
</g>

<g fill="#00ffff" fill-opacity="1" stroke="#00ffff" stroke-opacity="1" stroke-width="1" stroke-linecap="square" stroke-linejoin="bevel" transform="matrix(1,0,0,1,0,0)"
font-family="Arial" font-size="128" font-weight="400" font-style="normal" 
>
<text fill="#00ffff" fill-opacity="1" stroke="none" xml:space="preserve" x="8499" y="6200" font-family="Arial" font-size="128" font-weight="400" font-style="normal" 
 >(8499, 6250)</text>
</g>

<g fill="#00ffff" fill-opacity="1" stroke="#00ffff" stroke-opacity="1" stroke-width="1" stroke-linecap="square" stroke-linejoin="bevel" transform="matrix(1,0,0,1,0,0)"
font-family="Arial" font-size="128" font-weight="400" font-style="normal" 
>
<text fill="#00ffff" fill-opacity="1" stroke="none" xml:space="preserve" x="8299" y="6250" font-family="Arial" font-size="128" font-weight="400" font-style="normal" 
 >13</text>
</g>

<g fill="#000000" fill-opacity="0" stroke="#008000" stroke-opacity="1" stroke-width="24" stroke-linecap="square" stroke-linejoin="bevel" transform="matrix(1,0,0,1,0,0)"
font-family="Arial" font-size="128" font-weight="400" font-style="normal" 
>
<rect x="2000" y="8500" width="1999" height="500"/>
</g>

<g fill="#000000" fill-opacity="0" stroke="#008000" stroke-opacity="1" stroke-width="1" stroke-linecap="square" stroke-linejoin="bevel" transform="matrix(1,0,0,1,0,0)"
font-family="Arial" font-size="128" font-weight="400" font-style="normal" 
>
<text fill="#008000" fill-opacity="1" stroke="none" xml:space="preserve" x="2000" y="8450" font-family="Arial" font-size="128" font-weight="400" font-style="normal" 
 >(2000, 8500)</text>
</g>

<g fill="#000000" fill-opacity="0" stroke="#008000" stroke-opacity="1" stroke-width="1" stroke-linecap="square" stroke-linejoin="bevel" transform="matrix(1,0,0,1,0,0)"
font-family="Arial" font-size="128" font-weight="400" font-style="normal" 
>
<text fill="#008000" fill-opacity="1" stroke="none" xml:space="preserve" x="3999" y="8950" font-family="Arial" font-size="128" font-weight="400" font-style="normal" 
 >(3999, 9000)</text>
</g>

<g fill="#008000" fill-opacity="1" stroke="#008000" stroke-opacity="1" stroke-width="24" stroke-linecap="square" stroke-linejoin="bevel" transform="matrix(1,0,0,1,0,0)"
font-family="Arial" font-size="128" font-weight="400" font-style="normal" 
>
<circle cx="2999" cy="8750" r="50"/>
</g>

<g fill="#008000" fill-opacity="1" stroke="#008000" stroke-opacity="1" stroke-width="1" stroke-linecap="square" stroke-linejoin="bevel" transform="matrix(1,0,0,1,0,0)"
font-family="Arial" font-size="128" font-weight="400" font-style="normal" 
>
<text fill="#008000" fill-opacity="1" stroke="none" xml:space="preserve" x="2999" y="8700" font-family="Arial" font-size="128" font-weight="400" font-style="normal" 
 >(2999, 8750)</text>
</g>

<g fill="#008000" fill-opacity="1" stroke="#008000" stroke-opacity="1" stroke-width="1" stroke-linecap="square" stroke-linejoin="bevel" transform="matrix(1,0,0,1,0,0)"
font-family="Arial" font-size="128" font-weight="400" font-style="normal" 
>
<text fill="#008000" fill-opacity="1" stroke="none" xml:space="preserve" x="2799" y="8750" font-family="Arial" font-size="128" font-weight="400" font-style="normal" 
 >14</text>
</g>

<g fill="#000000" fill-opacity="0" stroke="#00ffff" stroke-opacity="1" stroke-width="24" stroke-linecap="square" stroke-linejoin="bevel" transform="matrix(1,0,0,1,0,0)"
font-family="Arial" font-size="128" font-weight="400" font-style="normal" 
>
<rect x="6000" y="8500" width="1999" height="500"/>
</g>

<g fill="#000000" fill-opacity="0" stroke="#00ffff" stroke-opacity="1" stroke-width="1" stroke-linecap="square" stroke-linejoin="bevel" transform="matrix(1,0,0,1,0,0)"
font-family="Arial" font-size="128" font-weight="400" font-style="normal" 
>
<text fill="#00ffff" fill-opacity="1" stroke="none" xml:space="preserve" x="6000" y="8450" font-family="Arial" font-size="128" font-weight="400" font-style="normal" 
 >(6000, 8500)</text>
</g>

<g fill="#000000" fill-opacity="0" stroke="#00ffff" stroke-opacity="1" stroke-width="1" stroke-linecap="square" stroke-linejoin="bevel" transform="matrix(1,0,0,1,0,0)"
font-family="Arial" font-size="128" font-weight="400" font-style="normal" 
>
<text fill="#00ffff" fill-opacity="1" stroke="none" xml:space="preserve" x="7999" y="8950" font-family="Arial" font-size="128" font-weight="400" font-style="normal" 
 >(7999, 9000)</text>
</g>

<g fill="#00ffff" fill-opacity="1" stroke="#00ffff" stroke-opacity="1" stroke-width="24" stroke-linecap="square" stroke-linejoin="bevel" transform="matrix(1,0,0,1,0,0)"
font-family="Arial" font-size="128" font-weight="400" font-style="normal" 
>
<circle cx="6999" cy="8750" r="50"/>
</g>

<g fill="#00ffff" fill-opacity="1" stroke="#00ffff" stroke-opacity="1" stroke-width="1" stroke-linecap="square" stroke-linejoin="bevel" transform="matrix(1,0,0,1,0,0)"
font-family="Arial" font-size="128" font-weight="400" font-style="normal" 
>
<text fill="#00ffff" fill-opacity="1" stroke="none" xml:space="preserve" x="6999" y="8700" font-family="Arial" font-size="128" font-weight="400" font-style="normal" 
 >(6999, 8750)</text>
</g>

<g fill="#00ffff" fill-opacity="1" stroke="#00ffff" stroke-opacity="1" stroke-width="1" stroke-linecap="square" stroke-linejoin="bevel" transform="matrix(1,0,0,1,0,0)"
font-family="Arial" font-size="128" font-weight="400" font-style="normal" 
>
<text fill="#00ffff" fill-opacity="1" stroke="none" xml:space="preserve" x="6799" y="8750" font-family="Arial" font-size="128" font-weight="400" font-style="normal" 
 >15</text>
</g>

<g fill="#00ffff" fill-opacity="1" stroke="#008000" stroke-opacity="1" stroke-width="12" stroke-linecap="square" stroke-linejoin="bevel" transform="matrix(1,0,0,1,0,0)"
font-family="Arial" font-size="128" font-weight="400" font-style="normal" 
>
<polyline fill="none" vector-effect="none" points="0,2500 9999,2500 " />
</g>

<g fill="#00ffff" fill-opacity="1" stroke="#ffff00" stroke-opacity="1" stroke-width="12" stroke-linecap="square" stroke-linejoin="bevel" transform="matrix(1,0,0,1,0,0)"
font-family="Arial" font-size="128" font-weight="400" font-style="normal" 
>
<polyline fill="none" vector-effect="none" points="0,5000 9999,5000 " />
</g>

<g fill="#00ffff" fill-opacity="1" stroke="#ff0000" stroke-opacity="1" stroke-width="12" stroke-linecap="square" stroke-linejoin="bevel" transform="matrix(1,0,0,1,0,0)"
font-family="Arial" font-size="128" font-weight="400" font-style="normal" 
>
<polyline fill="none" vector-effect="none" points="0,7500 9999,7500 " />
<polyline fill="none" vector-effect="none" points="2000,500 2055,1097 " />
<polyline fill="none" vector-effect="none" points="2055,1097 2479,673 " />
<polyline fill="none" vector-effect="none" points="2479,673 2593,950 " />
<polyline fill="none" vector-effect="none" points="6000,500 6000,0 " />
<polyline fill="none" vector-effect="none" points="6000,0 5771,554 " />
<polyline fill="none" vector-effect="none" points="5771,554 5771,854 " />
<polyline fill="none" vector-effect="none" points="2000,500 1446,271 " />
<polyline fill="none" vector-effect="none" points="1446,271 1217,825 " />
<polyline fill="none" vector-effect="none" points="1217,825 1641,1249 " />
<polyline fill="none" vector-effect="none" points="6000,500 6554,729 " />
<polyline fill="none" vector-effect="none" points="6554,729 6277,843 " />
<polyline fill="none" vector-effect="none" points="6277,843 6489,631 " />
<polyline fill="none" vector-effect="none" points="2000,500 2000,200 " />
<polyline fill="none" vector-effect="none" points="2000,200 2212,0 " />
<polyline fill="none" vector-effect="none" points="2212,0 2766,0 " />
<polyline fill="none" vector-effect="none" points="6000,500 6114,777 " />
<polyline fill="none" vector-effect="none" points="6114,777 5814,777 " />
<polyline fill="none" vector-effect="none" points="5814,777 6368,548 " />
<polyline fill="none" vector-effect="none" points="2000,500 1771,1054 " />
<polyline fill="none" vector-effect="none" points="1771,1054 1494,1168 " />
<polyline fill="none" vector-effect="none" points="1494,1168 1494,868 " />
<polyline fill="none" vector-effect="none" points="6000,500 6000,200 " />
<polyline fill="none" vector-effect="none" points="6000,200 5446,0 " />
<polyline fill="none" vector-effect="none" points="5446,0 5169,114 " />
<polyline fill="none" vector-effect="none" points="2000,500 1771,1054 " />
<polyline fill="none" vector-effect="none" points="1771,1054 1771,1654 " />
<polyline fill="none" vector-effect="none" points="1771,1654 1771,2254 " />
<polyline fill="none" vector-effect="none" points="6000,500 6000,200 " />
<polyline fill="none" vector-effect="none" points="6000,200 5788,0 " />
<polyline fill="none" vector-effect="none" points="5788,0 5902,0 " />
<polyline fill="none" vector-effect="none" points="2000,500 1771,1054 " />
<polyline fill="none" vector-effect="none" points="1771,1054 1885,1331 " />
<polyline fill="none" vector-effect="none" points="1885,1331 1608,1217 " />
<polyline fill="none" vector-effect="none" points="6000,500 5700,500 " />
<polyline fill="none" vector-effect="none" points="5700,500 5400,500 " />
<polyline fill="none" vector-effect="none" points="5400,500 5123,386 " />
<polyline fill="none" vector-effect="none" points="2000,500 1446,729 " />
<polyline fill="none" vector-effect="none" points="1446,729 1022,1153 " />
<polyline fill="none" vector-effect="none" points="1022,1153 793,1707 " />
<polyline fill="none" vector-effect="none" points="6000,500 5723,614 " />
<polyline fill="none" vector-effect="none" points="5723,614 5511,402 " />
<polyline fill="none" vector-effect="none" points="5511,402 5299,190 " />
<polyline fill="none" vector-effect="none" points="2000,500 1446,729 " />
<polyline fill="none" vector-effect="none" points="1446,729 1217,1283 " />
<polyline fill="none" vector-effect="none" points="1217,1283 988,1837 " />
<polyline fill="none" vector-effect="none" points="6000,500 5723,386 " />
<polyline fill="none" vector-effect="none" points="5723,386 5511,174 " />
<polyline fill="none" vector-effect="none" points="5511,174 5397,0 " />
<polyline fill="none" vector-effect="none" points="2000,500 1771,1054 " />
<polyline fill="none" vector-effect="none" points="1771,1054 1559,1266 " />
<polyline fill="none" vector-effect="none" points="1559,1266 1445,989 " />
<polyline fill="none" vector-effect="none" points="6000,500 5771,1054 " />
<polyline fill="none" vector-effect="none" points="5771,1054 5494,1168 " />
<polyline fill="none" vector-effect="none" points="5494,1168 5608,891 " />
<polyline fill="none" vector-effect="none" points="2000,500 1771,1054 " />
<polyline fill="none" vector-effect="none" points="1771,1054 1347,1478 " />
<polyline fill="none" vector-effect="none" points="1347,1478 1347,1778 " />
<polyline fill="none" vector-effect="none" points="6000,500 5446,729 " />
<polyline fill="none" vector-effect="none" points="5446,729 5234,941 " />
<polyline fill="none" vector-effect="none" points="5234,941 4957,827 " />
<polyline fill="none" vector-effect="none" points="2000,500 1576,924 " />
<polyline fill="none" vector-effect="none" points="1576,924 976,924 " />
<polyline fill="none" vector-effect="none" points="976,924 676,924 " />
<polyline fill="none" vector-effect="none" points="6000,500 5886,223 " />
<polyline fill="none" vector-effect="none" points="5886,223 5586,223 " />
<polyline fill="none" vector-effect="none" points="5586,223 5586,0 " />
<polyline fill="none" vector-effect="none" points="2000,500 1886,777 " />
<polyline fill="none" vector-effect="none" points="1886,777 1462,353 " />
<polyline fill="none" vector-effect="none" points="1462,353 1348,630 " />
<polyline fill="none" vector-effect="none" points="6000,500 5723,614 " />
<polyline fill="none" vector-effect="none" points="5723,614 5423,614 " />
<polyline fill="none" vector-effect="none" points="5423,614 5423,314 " />
<polyline fill="none" vector-effect="none" points="2000,500 1446,729 " />
<polyline fill="none" vector-effect="none" points="1446,729 846,729 " />
<polyline fill="none" vector-effect="none" points="846,729 732,1006 " />
<polyline fill="none" vector-effect="none" points="6000,500 5886,777 " />
<polyline fill="none" vector-effect="none" points="5886,777 5586,777 " />
<polyline fill="none" vector-effect="none" points="5586,777 5472,500 " />
<polyline fill="none" vector-effect="none" points="2000,500 1576,924 " />
<polyline fill="none" vector-effect="none" points="1576,924 1022,1153 " />
<polyline fill="none" vector-effect="none" points="1022,1153 422,1153 " />
<polyline fill="none" vector-effect="none" points="6000,500 5771,1054 " />
<polyline fill="none" vector-effect="none" points="5771,1054 5471,1054 " />
<polyline fill="none" vector-effect="none" points="5471,1054 5471,754 " />
<polyline fill="none" vector-effect="none" points="2000,500 1886,777 " />
<polyline fill="none" vector-effect="none" points="1886,777 1609,663 " />
<polyline fill="none" vector-effect="none" points="1609,663 1185,239 " />
<polyline fill="none" vector-effect="none" points="6000,500 5723,614 " />
<polyline fill="none" vector-effect="none" points="5723,614 5299,190 " />
<polyline fill="none" vector-effect="none" points="5299,190 5022,304 " />
<polyline fill="none" vector-effect="none" points="2000,500 1446,729 " />
<polyline fill="none" vector-effect="none" points="1446,729 1169,843 " />
<polyline fill="none" vector-effect="none" points="1169,843 615,614 " />
<polyline fill="none" vector-effect="none" points="6000,500 6000,200 " />
<polyline fill="none" vector-effect="none" points="6000,200 5788,0 " />
<polyline fill="none" vector-effect="none" points="5788,0 5488,0 " />
</g>
</g>
</svg>
